<?xml version="1.0" standalone="no"?>
<!DOCTYPE svg PUBLIC "-//W3C//DTD SVG 20010904//EN"
 "http://www.w3.org/TR/2001/REC-SVG-20010904/DTD/svg10.dtd">
<svg version="1.0" xmlns="http://www.w3.org/2000/svg"
 width="960.000000pt" height="960.000000pt" viewBox="0 0 960.000000 960.000000"
 preserveAspectRatio="xMidYMid meet">
<metadata>
Created by potrace 1.11, written by Peter Selinger 2001-2013
</metadata>
<g transform="translate(0.000000,960.000000) scale(0.100000,-0.100000)"
fill="#000000" stroke="none">
<path d="M2050 4805 l0 -1895 1215 0 1215 0 0 310 0 310 -827 2 -828 3 -3
1583 -2 1582 -385 0 -385 0 0 -1895z"/>
<path d="M6066 6668 c-22 -53 -1396 -3747 -1396 -3753 0 -3 185 -4 412 -3
l411 3 130 388 129 387 686 0 687 0 130 -388 130 -387 413 -3 c226 -1 412 1
412 4 0 4 -318 857 -707 1896 l-708 1888 -358 0 -358 0 -13 -32z m609 -1633
c129 -384 235 -703 235 -707 0 -4 -213 -8 -474 -8 l-474 0 236 709 c130 391
238 709 239 708 1 -2 108 -317 238 -702z"/>
<path d="M8570 4805 l0 -1895 390 0 390 0 0 695 0 695 125 0 125 0 0 315 0
315 -125 0 -125 0 0 570 0 570 125 0 125 0 0 315 0 315 -515 0 -515 0 0 -1895z"/>
</g>
</svg>
